<svg width="264" height="74" viewBox="0 0 264 74" fill="none" xmlns="http://www.w3.org/2000/svg">
<g filter="url(#filter0_d_2004_118)">
<path d="M53.3389 8.56226C40.1822 8.56226 26.8334 7.6351 13.8953 10.0873C10.488 10.0873 12.7147 20.4726 12.7147 22.1178C12.7147 27.7511 13.1082 33.4057 13.1082 39.0622C13.1082 43.5889 12.5658 48.5255 13.6767 52.9566C14.8325 57.5667 16.7899 55.6009 20.9139 56.5996C24.386 57.4405 29.0457 57.3508 32.6332 56.7902C38.1414 55.9296 43.9297 56.854 49.4908 56.3031C56.8041 55.5785 64.0831 53.604 71.4428 53.5496C82.1886 53.4701 92.7309 54.9577 103.409 56.0277C113.055 56.9944 121.937 58.425 131.636 57.3409C134.569 57.0131 137.366 56.1972 140.316 55.9218C142.942 55.6766 145.416 56.2603 147.969 56.2184C158.251 56.0495 168.595 55.5297 178.885 56.3031C196.385 57.6184 214.412 59.0928 231.907 56.8114C237.461 56.0871 242.83 55.3534 248.196 53.7402C251.29 52.8099 250.426 50.3844 250.426 47.6191C250.426 40.311 252 32.9882 252 25.6337C252 22.2395 251.606 18.9616 251.606 15.6154C251.606 14.1957 251.213 12.8413 251.213 11.4428C251.213 10.2575 250.562 10.5753 249.857 9.70601C248.558 8.10409 247.382 8.96657 245.616 8.47754C242.51 7.61813 238.612 8.18101 235.383 8.18101C229.886 8.18101 224.441 8.56226 218.963 8.56226C215.22 8.56226 211.404 8.34612 207.681 8.77407C203.724 9.22881 199.876 9.85714 195.874 9.68483C177.609 8.89846 159.445 8.56226 141.147 8.56226H110.143C106.13 8.56226 102.145 8.94351 98.1394 8.94351C94.5706 8.94351 90.8297 8.62261 87.2946 9.15532C81.8332 9.97828 75.5026 10.2662 69.9997 9.40948C64.4097 8.53919 58.9869 8.56226 53.3389 8.56226Z" fill="white"/>
<path d="M53.3389 8.56226C40.1822 8.56226 26.8334 7.6351 13.8953 10.0873C10.488 10.0873 12.7147 20.4726 12.7147 22.1178C12.7147 27.7511 13.1082 33.4057 13.1082 39.0622C13.1082 43.5889 12.5658 48.5255 13.6767 52.9566C14.8325 57.5667 16.7899 55.6009 20.9139 56.5996C24.386 57.4405 29.0457 57.3508 32.6332 56.7902C38.1414 55.9296 43.9297 56.854 49.4908 56.3031C56.8041 55.5785 64.0831 53.604 71.4428 53.5496C82.1886 53.4701 92.7309 54.9577 103.409 56.0277C113.055 56.9944 121.937 58.425 131.636 57.3409C134.569 57.0131 137.366 56.1972 140.316 55.9218C142.942 55.6766 145.416 56.2603 147.969 56.2184C158.251 56.0495 168.595 55.5297 178.885 56.3031C196.385 57.6184 214.412 59.0928 231.907 56.8114C237.461 56.0871 242.83 55.3534 248.196 53.7402C251.29 52.8099 250.426 50.3844 250.426 47.6191C250.426 40.311 252 32.9882 252 25.6337C252 22.2395 251.606 18.9616 251.606 15.6154C251.606 14.1957 251.213 12.8413 251.213 11.4428C251.213 10.2575 250.562 10.5753 249.857 9.70601C248.558 8.10409 247.382 8.96657 245.616 8.47754C242.51 7.61813 238.612 8.18101 235.383 8.18101C229.886 8.18101 224.441 8.56226 218.963 8.56226C215.22 8.56226 211.404 8.34612 207.681 8.77407C203.724 9.22881 199.876 9.85714 195.874 9.68483C177.609 8.89846 159.445 8.56226 141.147 8.56226H110.143C106.13 8.56226 102.145 8.94351 98.1394 8.94351C94.5706 8.94351 90.8297 8.62261 87.2946 9.15532C81.8332 9.97828 75.5026 10.2662 69.9997 9.40948C64.4097 8.53919 58.9869 8.56226 53.3389 8.56226Z" stroke="black" stroke-width="3" stroke-linecap="round"/>
</g>
<defs>
<filter id="filter0_d_2004_118" x="0.499878" y="0.499939" width="263" height="72.9998" filterUnits="userSpaceOnUse" color-interpolation-filters="sRGB">
<feFlood flood-opacity="0" result="BackgroundImageFix"/>
<feColorMatrix in="SourceAlpha" type="matrix" values="0 0 0 0 0 0 0 0 0 0 0 0 0 0 0 0 0 0 127 0" result="hardAlpha"/>
<feOffset dy="4"/>
<feGaussianBlur stdDeviation="5"/>
<feComposite in2="hardAlpha" operator="out"/>
<feColorMatrix type="matrix" values="0 0 0 0 0 0 0 0 0 0 0 0 0 0 0 0 0 0 0.25 0"/>
<feBlend mode="normal" in2="BackgroundImageFix" result="effect1_dropShadow_2004_118"/>
<feBlend mode="normal" in="SourceGraphic" in2="effect1_dropShadow_2004_118" result="shape"/>
</filter>
</defs>
</svg>
