<svg width="192" height="229" viewBox="0 0 192 229" fill="none" xmlns="http://www.w3.org/2000/svg">
<g clip-path="url(#clip0_791_1048)">
<path d="M96 192C149.019 192 192 149.019 192 96C192 42.9807 149.019 0 96 0C42.9807 0 0 42.9807 0 96C0 149.019 42.9807 192 96 192Z" fill="url(#paint0_linear_791_1048)"/>
<mask id="mask0_791_1048" style="mask-type:luminance" maskUnits="userSpaceOnUse" x="0" y="0" width="192" height="192">
<path d="M96 192C149.019 192 192 149.019 192 96C192 42.9807 149.019 0 96 0C42.9807 0 0 42.9807 0 96C0 149.019 42.9807 192 96 192Z" fill="white"/>
</mask>
<g mask="url(#mask0_791_1048)">
<path d="M93.9736 -22.916V43.9746" stroke="black" stroke-width="0.789865"/>
<path d="M84.0654 -22.916V43.9746" stroke="black" stroke-width="0.789865"/>
<path d="M106.981 -22.916V43.9746" stroke="black" stroke-width="0.789865"/>
<path d="M52.0283 -9.88564L73.7168 30.5674V-15.4834" stroke="black" stroke-width="0.789865"/>
<path d="M138.748 -11.125L117.06 29.3281V-16.7227" stroke="black" stroke-width="0.789865"/>
<path d="M97.4092 223.586V156.695" stroke="black" stroke-width="0.789865"/>
<path d="M107.319 223.586V156.695" stroke="black" stroke-width="0.789865"/>
<path d="M84.4014 223.586V156.695" stroke="black" stroke-width="0.789865"/>
<path d="M139.985 211.395L118.297 170.942V216.993" stroke="black" stroke-width="0.789865"/>
<path d="M52.0273 212.013L73.7159 171.56V217.61" stroke="black" stroke-width="0.789865"/>
<path d="M-27.5586 102.055H39.3317" stroke="black" stroke-width="0.789865"/>
<path d="M-27.5586 111.965H39.3317" stroke="black" stroke-width="0.789865"/>
<path d="M-27.5586 89.0488H39.3317" stroke="black" stroke-width="0.789865"/>
<path d="M-16.077 144.321L24.3759 122.633H-21.6748" stroke="black" stroke-width="0.789865"/>
<path d="M-11.7421 58.8389L28.7108 80.5269H-17.3398" stroke="black" stroke-width="0.789865"/>
<path d="M218.944 98.6191H152.054" stroke="black" stroke-width="0.789865"/>
<path d="M218.944 88.7061H152.054" stroke="black" stroke-width="0.789865"/>
<path d="M218.944 111.625H152.054" stroke="black" stroke-width="0.789865"/>
<path d="M205.205 56.3613L164.752 78.0503H210.803" stroke="black" stroke-width="0.789865"/>
<path d="M207.681 143.702L167.229 122.014H213.279" stroke="black" stroke-width="0.789865"/>
<path d="M9.75293 188.703L57.0516 141.404" stroke="black" stroke-width="0.789865"/>
<path d="M16.7617 195.709L64.0603 148.41" stroke="black" stroke-width="0.789865"/>
<path d="M0.555664 179.505L47.8541 132.206" stroke="black" stroke-width="0.789865"/>
<path d="M50.2598 210.546L63.529 166.605L30.9658 199.168" stroke="black" stroke-width="0.789865"/>
<path d="M-14.0029 146.901L29.9376 133.633L-2.62509 166.195" stroke="black" stroke-width="0.789865"/>
<path d="M181.632 11.9678L134.333 59.2665" stroke="black" stroke-width="0.789865"/>
<path d="M174.626 4.96191L127.327 52.2607" stroke="black" stroke-width="0.789865"/>
<path d="M190.828 21.165L143.53 68.4638" stroke="black" stroke-width="0.789865"/>
<path d="M142.571 -8.42969L129.303 35.511L161.865 2.94817" stroke="black" stroke-width="0.789865"/>
<path d="M204.977 52.7396L161.036 66.0079L193.599 33.4453" stroke="black" stroke-width="0.789865"/>
<path d="M184.055 186.274L136.757 138.976" stroke="black" stroke-width="0.789865"/>
<path d="M191.064 179.265L143.766 131.967" stroke="black" stroke-width="0.789865"/>
<path d="M174.858 195.47L127.56 148.171" stroke="black" stroke-width="0.789865"/>
<path d="M206.212 146.902L162.271 133.633L194.834 166.195" stroke="black" stroke-width="0.789865"/>
<path d="M143.183 209.93L129.915 165.989L162.478 198.552" stroke="black" stroke-width="0.789865"/>
<path d="M7.32324 14.3984L54.622 61.6972" stroke="black" stroke-width="0.789865"/>
<path d="M0.31543 21.4043L47.614 68.7027" stroke="black" stroke-width="0.789865"/>
<path d="M16.5205 5.20117L63.8192 52.5" stroke="black" stroke-width="0.789865"/>
<path d="M-10.9072 55.8372L33.0334 69.1054L0.470644 36.543" stroke="black" stroke-width="0.789865"/>
<path d="M49.6408 -6.57129L62.9095 37.3694L30.3467 4.80656" stroke="black" stroke-width="0.789865"/>
</g>
<path d="M95.6931 161.856C131.894 161.856 161.241 132.509 161.241 96.3083C161.241 60.1074 131.894 30.7607 95.6931 30.7607C59.4922 30.7607 30.1455 60.1074 30.1455 96.3083C30.1455 132.509 59.4922 161.856 95.6931 161.856Z" fill="#F8BA3A" stroke="black" stroke-width="0.677027"/>
<mask id="mask1_791_1048" style="mask-type:luminance" maskUnits="userSpaceOnUse" x="30" y="36" width="132" height="132">
<path d="M96.3113 167.095C132.512 167.095 161.859 137.749 161.859 101.548C161.859 65.3467 132.512 36 96.3113 36C60.1103 36 30.7637 65.3467 30.7637 101.548C30.7637 137.749 60.1103 167.095 96.3113 167.095Z" fill="white"/>
</mask>
<g mask="url(#mask1_791_1048)">
<path fill-rule="evenodd" clip-rule="evenodd" d="M99.4085 33.1094L90.7373 102.787H99.4085L96.0023 167.055L159.196 155.742L170.662 67.5086L142.811 43.019L99.4085 33.1094Z" fill="#FFE3AA"/>
</g>
<path d="M35.0222 87.5867C36.514 99.7367 44.418 112.378 56.5648 110.886C97.7907 105.824 91.9983 79.3325 91.4427 70.7525C94.4265 95.0525 112.883 103.972 143.802 100.175C153.003 99.0449 156.774 81.0605 155.754 72.7625C154.481 62.3903 127.019 60.8741 92.7873 65.0771C58.5552 69.2801 33.1573 72.3989 35.0222 87.5867Z" fill="#01C1AE" stroke="#01C1AE" stroke-width="1.24122" stroke-linecap="round" stroke-linejoin="round"/>
<path d="M96.6962 138.003C111.059 136.831 121.834 125.235 120.762 112.104L68.75 116.347C69.821 129.479 82.3334 139.174 96.6962 138.003Z" fill="black" stroke="#FE9D51" stroke-width="0.564189" stroke-linejoin="round"/>
<path d="M103.432 123.869H117.677" stroke="#FE9A54" stroke-width="0.451351" stroke-linecap="round" stroke-linejoin="round"/>
<path d="M111.175 94.4494C100.026 90.238 95.5883 79.069 94.7627 74.011C94.7627 67.198 102.504 66.2686 121.394 66.2686C140.285 66.2686 151.743 67.8172 152.672 72.772C153.601 81.4432 150.504 94.4494 146.169 96.6172C141.833 98.785 125.111 99.7138 111.175 94.4494Z" fill="black" stroke="black" stroke-width="0.112838"/>
<path d="M78.384 100.259C87.3306 94.3626 91.9758 82.9926 89.1888 73.3926C87.6012 67.9248 78.8862 69.2658 62.5566 71.8446C48.0017 74.1426 36.8534 80.5152 38.0921 86.0892C38.7111 95.2224 45.7566 104.869 49.8598 106.528C53.9631 108.188 67.2018 107.629 78.384 100.259Z" fill="black" stroke="black" stroke-width="0.112838"/>
<path d="M155.769 44.5928L161.206 59.2855L175.899 64.722L161.206 70.1586L155.769 84.8508L150.333 70.1586L135.641 64.722L150.333 59.2855L155.769 44.5928Z" fill="#FB9547"/>
<path d="M56.327 225.103C56.327 225.556 56.2696 225.964 56.1549 226.329C56.046 226.687 55.8998 227.004 55.7162 227.281C55.5327 227.557 55.3177 227.792 55.0711 227.986C54.8244 228.18 54.5693 228.339 54.3055 228.462C54.0416 228.586 53.7721 228.677 53.4968 228.735C53.2274 228.794 52.9721 228.824 52.7313 228.824H44.1033V226.531H52.7313C53.1614 226.531 53.494 226.402 53.7292 226.143C53.97 225.885 54.0904 225.538 54.0904 225.103C54.0904 224.891 54.0589 224.697 53.9958 224.521C53.9327 224.345 53.841 224.192 53.7205 224.063C53.6058 223.933 53.4625 223.833 53.2904 223.763C53.1241 223.692 52.9377 223.657 52.7313 223.657H47.5872C47.2259 223.657 46.8359 223.592 46.4172 223.463C45.9986 223.328 45.6087 223.113 45.2474 222.819C44.8918 222.526 44.5936 222.141 44.3527 221.665C44.1176 221.188 44 220.607 44 219.919C44 219.231 44.1176 218.652 44.3527 218.182C44.5936 217.706 44.8918 217.321 45.2474 217.027C45.6087 216.727 45.9986 216.513 46.4172 216.383C46.8359 216.248 47.2259 216.181 47.5872 216.181H55.2001V218.473H47.5872C47.1627 218.473 46.8301 218.605 46.5893 218.87C46.3542 219.134 46.2366 219.484 46.2366 219.919C46.2366 220.36 46.3542 220.709 46.5893 220.968C46.8301 221.221 47.1627 221.347 47.5872 221.347H52.7313H52.7485C52.9893 221.353 53.2445 221.388 53.5141 221.453C53.7836 221.512 54.0503 221.606 54.3141 221.735C54.5836 221.864 54.8388 222.029 55.0797 222.229C55.3205 222.423 55.5327 222.658 55.7162 222.934C55.9055 223.21 56.0546 223.528 56.1636 223.886C56.2725 224.245 56.327 224.65 56.327 225.103ZM69.7426 227.669C69.7426 227.833 69.7139 227.986 69.6566 228.127C69.5993 228.268 69.519 228.392 69.4158 228.497C69.3126 228.597 69.1921 228.677 69.0545 228.735C68.9168 228.794 68.7706 228.824 68.6158 228.824H63.5749C63.0989 228.824 62.6172 228.771 62.1297 228.665C61.6423 228.559 61.1691 228.398 60.7103 228.18C60.2573 227.957 59.83 227.675 59.4286 227.334C59.0272 226.993 58.6745 226.59 58.3705 226.126C58.0723 225.656 57.8372 225.121 57.6652 224.521C57.4931 223.916 57.4071 223.243 57.4071 222.502V216.181H59.6437V222.502C59.6437 223.149 59.7297 223.695 59.9018 224.142C60.0795 224.589 60.3031 224.962 60.5727 225.262C60.8422 225.562 61.1376 225.797 61.4588 225.967C61.7799 226.138 62.0838 226.264 62.3705 226.346C62.663 226.428 62.9182 226.481 63.1361 226.505C63.3598 226.522 63.506 226.531 63.5749 226.531H67.506V216.181H69.7426V227.669ZM84.1476 227.845C84.1476 228.01 84.116 228.162 84.053 228.303C83.9956 228.445 83.9153 228.568 83.812 228.674C83.7146 228.774 83.597 228.853 83.4594 228.912C83.3218 228.971 83.1755 229 83.0207 229C82.883 229 82.7425 228.974 82.5992 228.921C82.4615 228.868 82.3382 228.782 82.2293 228.665L74.0572 219.919V228.824H71.8206V217.159C71.8206 216.924 71.8837 216.713 72.0098 216.524C72.1418 216.33 72.3081 216.186 72.5088 216.092C72.721 216.004 72.9389 215.984 73.1625 216.031C73.3862 216.072 73.5783 216.178 73.7389 216.348L81.911 225.085V216.181H84.1476V227.845ZM103.719 221.471C103.719 221.994 103.656 222.461 103.529 222.872C103.403 223.284 103.231 223.648 103.013 223.966C102.801 224.277 102.555 224.545 102.274 224.768C101.992 224.991 101.697 225.174 101.388 225.315C101.084 225.456 100.774 225.559 100.458 225.623C100.148 225.688 99.8563 225.72 99.581 225.72H94.5226V223.428H99.581C99.868 223.404 100.126 223.346 100.355 223.252C100.59 223.152 100.791 223.019 100.957 222.855C101.123 222.69 101.252 222.493 101.344 222.264C101.436 222.029 101.482 221.764 101.482 221.471V220.43C101.454 220.142 101.393 219.878 101.302 219.637C101.21 219.396 101.084 219.19 100.923 219.02C100.768 218.849 100.579 218.717 100.355 218.623C100.132 218.523 99.8732 218.473 99.581 218.473H94.5403C94.2415 218.473 94.0154 218.552 93.8605 218.711C93.7056 218.87 93.6286 219.099 93.6286 219.399V228.824H91.3919V219.399C91.3919 218.811 91.4947 218.311 91.7017 217.9C91.9138 217.488 92.1744 217.156 92.4842 216.904C92.7998 216.651 93.1404 216.469 93.5074 216.357C93.8745 216.239 94.2129 216.181 94.5226 216.181H99.581C100.085 216.181 100.539 216.248 100.94 216.383C101.341 216.513 101.694 216.689 101.998 216.912C102.308 217.13 102.569 217.383 102.781 217.671C102.999 217.959 103.176 218.261 103.314 218.579C103.458 218.89 103.561 219.208 103.624 219.531C103.687 219.848 103.719 220.148 103.719 220.43V221.471ZM117.195 227.669C117.195 227.833 117.166 227.986 117.109 228.127C117.051 228.268 116.971 228.392 116.867 228.497C116.764 228.597 116.644 228.677 116.506 228.735C116.369 228.794 116.223 228.824 116.068 228.824H111.026C110.551 228.824 110.069 228.771 109.582 228.665C109.094 228.559 108.621 228.398 108.162 228.18C107.709 227.957 107.282 227.675 106.88 227.334C106.479 226.993 106.127 226.59 105.823 226.126C105.524 225.656 105.289 225.121 105.117 224.521C104.945 223.916 104.859 223.243 104.859 222.502V216.181H107.096V222.502C107.096 223.149 107.181 223.695 107.353 224.142C107.532 224.589 107.755 224.962 108.025 225.262C108.294 225.562 108.589 225.797 108.911 225.967C109.232 226.138 109.536 226.264 109.823 226.346C110.115 226.428 110.37 226.481 110.588 226.505C110.811 226.522 110.958 226.531 111.026 226.531H114.958V216.181H117.195V227.669ZM133.629 228.824H131.376V221.294L127.41 228.445C127.313 228.627 127.175 228.765 126.997 228.859C126.825 228.953 126.639 229 126.438 229C126.243 229 126.06 228.953 125.887 228.859C125.721 228.765 125.589 228.627 125.492 228.445L121.509 221.294V228.824H119.273V217.159C119.273 216.895 119.347 216.66 119.496 216.454C119.651 216.248 119.852 216.11 120.099 216.04C120.219 216.01 120.339 216.001 120.46 216.013C120.58 216.019 120.695 216.045 120.803 216.092C120.919 216.134 121.021 216.195 121.113 216.278C121.205 216.354 121.283 216.448 121.346 216.56L126.438 225.632L131.531 216.56C131.662 216.336 131.843 216.178 132.072 216.084C132.307 215.99 132.551 215.975 132.804 216.04C133.044 216.11 133.243 216.248 133.397 216.454C133.552 216.66 133.629 216.895 133.629 217.159V228.824ZM148 221.471C148 221.994 147.937 222.461 147.811 222.872C147.684 223.284 147.513 223.648 147.295 223.966C147.082 224.277 146.836 224.545 146.555 224.768C146.274 224.991 145.978 225.174 145.669 225.315C145.365 225.456 145.055 225.559 144.74 225.623C144.43 225.688 144.137 225.72 143.862 225.72H138.804V223.428H143.862C144.149 223.404 144.407 223.346 144.637 223.252C144.871 223.152 145.073 223.019 145.238 222.855C145.405 222.69 145.534 222.493 145.626 222.264C145.718 222.029 145.763 221.764 145.763 221.471V220.43C145.735 220.142 145.675 219.878 145.583 219.637C145.491 219.396 145.365 219.19 145.204 219.02C145.049 218.849 144.86 218.717 144.637 218.623C144.413 218.523 144.155 218.473 143.862 218.473H138.821C138.523 218.473 138.297 218.552 138.142 218.711C137.987 218.87 137.91 219.099 137.91 219.399V228.824H135.673V219.399C135.673 218.811 135.777 218.311 135.983 217.9C136.195 217.488 136.456 217.156 136.765 216.904C137.081 216.651 137.422 216.469 137.789 216.357C138.156 216.239 138.495 216.181 138.804 216.181H143.862C144.367 216.181 144.82 216.248 145.222 216.383C145.623 216.513 145.975 216.689 146.279 216.912C146.589 217.13 146.85 217.383 147.063 217.671C147.281 217.959 147.458 218.261 147.596 218.579C147.739 218.89 147.842 219.208 147.905 219.531C147.968 219.848 148 220.148 148 220.43V221.471Z" fill="black"/>
</g>
<defs>
<linearGradient id="paint0_linear_791_1048" x1="0" y1="0" x2="0" y2="192" gradientUnits="userSpaceOnUse">
<stop stop-color="#F5B745"/>
<stop offset="1" stop-color="#FC8B47"/>
</linearGradient>
<clipPath id="clip0_791_1048">
<rect width="192" height="229" fill="white"/>
</clipPath>
</defs>
</svg>
